HIERARCHY
ROOT Hips
{
  OFFSET 0.000 78.041 0.000
  CHANNELS 6 Xposition Yposition Zposition Zrotation Xrotation Yrotation
  JOINT LeftUpLeg
  {
    OFFSET 8.011 1.216 3.056
    CHANNELS 6 Xposition Yposition Zposition Zrotation Xrotation Yrotation
    JOINT LeftLeg
    {
      OFFSET 0.000 -40.098 0.000
      CHANNELS 6 Xposition Yposition Zposition Zrotation Xrotation Yrotation
      JOINT LeftFoot
      {
        OFFSET 0.000 -39.158 0.000
        CHANNELS 6 Xposition Yposition Zposition Zrotation Xrotation Yrotation
        End Site
        {
          OFFSET 0.000 0.000 11.433
        }
      }
    }
  }
  JOINT RightUpLeg
  {
    OFFSET -8.011 1.216 3.056
    CHANNELS 6 Xposition Yposition Zposition Zrotation Xrotation Yrotation
    JOINT RightLeg
    {
      OFFSET 0.000 -40.098 0.000
      CHANNELS 6 Xposition Yposition Zposition Zrotation Xrotation Yrotation
      JOINT RightFoot
      {
        OFFSET 0.000 -39.158 0.000
        CHANNELS 6 Xposition Yposition Zposition Zrotation Xrotation Yrotation
        End Site
        {
          OFFSET 0.000 0.000 11.433
        }
      }
    }
  }
  JOINT Spine
  {
    OFFSET 0.000 31.349 0.000
    CHANNELS 6 Xposition Yposition Zposition Zrotation Xrotation Yrotation
    JOINT Spine1
    {
      OFFSET 0.000 23.230 0.000
      CHANNELS 6 Xposition Yposition Zposition Zrotation Xrotation Yrotation
      JOINT LeftShoulder
      {
        OFFSET 1.496 -0.254 0.377
        CHANNELS 6 Xposition Yposition Zposition Zrotation Xrotation Yrotation
        JOINT LeftArm
        {
          OFFSET 15.025 0.000 0.000
          CHANNELS 6 Xposition Yposition Zposition Zrotation Xrotation Yrotation
          JOINT LeftForeArm
          {
            OFFSET 23.933 0.000 0.000
            CHANNELS 6 Xposition Yposition Zposition Zrotation Xrotation Yrotation
            JOINT LeftHand
            {
              OFFSET 23.188 0.000 0.000
              CHANNELS 6 Xposition Yposition Zposition Zrotation Xrotation Yrotation
              JOINT LeftHandThumb1
              {
                OFFSET 4.877 -1.044 3.608
                CHANNELS 6 Xposition Yposition Zposition Zrotation Xrotation Yrotation
                JOINT LeftHandThumb2
                {
                  OFFSET 2.665 0.000 0.000
                  CHANNELS 6 Xposition Yposition Zposition Zrotation Xrotation Yrotation
                  JOINT LeftHandThumb3
                  {
                    OFFSET 2.543 0.000 -0.000
                    CHANNELS 6 Xposition Yposition Zposition Zrotation Xrotation Yrotation
                    End Site
                    {
                      OFFSET 2.667 -0.000 0.000
                    }
                  }
                }
              }
              JOINT LeftHandIndex1
              {
                OFFSET 9.232 -0.301 2.144
                CHANNELS 6 Xposition Yposition Zposition Zrotation Xrotation Yrotation
                JOINT LeftHandIndex2
                {
                  OFFSET 4.225 0.000 -0.000
                  CHANNELS 6 Xposition Yposition Zposition Zrotation Xrotation Yrotation
                  JOINT LeftHandIndex3
                  {
                    OFFSET 2.654 0.000 0.000
                    CHANNELS 6 Xposition Yposition Zposition Zrotation Xrotation Yrotation
                    End Site
                    {
                      OFFSET 1.958 0.000 -0.000
                    }
                  }
                }
              }
              JOINT LeftHandMiddle1
              {
                OFFSET 8.920 0.000 -0.000
                CHANNELS 6 Xposition Yposition Zposition Zrotation Xrotation Yrotation
                JOINT LeftHandMiddle2
                {
                  OFFSET 4.863 0.000 0.000
                  CHANNELS 6 Xposition Yposition Zposition Zrotation Xrotation Yrotation
                  JOINT LeftHandMiddle3
                  {
                    OFFSET 2.765 -0.000 0.000
                    CHANNELS 6 Xposition Yposition Zposition Zrotation Xrotation Yrotation
                    End Site
                    {
                      OFFSET 2.006 0.000 0.000
                    }
                  }
                }
              }
              JOINT LeftHandRing1
              {
                OFFSET 8.689 -0.126 -2.087
                CHANNELS 6 Xposition Yposition Zposition Zrotation Xrotation Yrotation
                JOINT LeftHandRing2
                {
                  OFFSET 4.538 -0.000 0.000
                  CHANNELS 6 Xposition Yposition Zposition Zrotation Xrotation Yrotation
                  JOINT LeftHandRing3
                  {
                    OFFSET 2.305 0.000 0.000
                    CHANNELS 6 Xposition Yposition Zposition Zrotation Xrotation Yrotation
                    End Site
                    {
                      OFFSET 1.923 0.000 0.000
                    }
                  }
                }
              }
              JOINT LeftHandPinky1
              {
                OFFSET 8.391 -0.817 -3.758
                CHANNELS 6 Xposition Yposition Zposition Zrotation Xrotation Yrotation
                JOINT LeftHandPinky2
                {
                  OFFSET 3.044 0.000 0.000
                  CHANNELS 6 Xposition Yposition Zposition Zrotation Xrotation Yrotation
                  JOINT LeftHandPinky3
                  {
                    OFFSET 1.975 0.000 0.000
                    CHANNELS 6 Xposition Yposition Zposition Zrotation Xrotation Yrotation
                    End Site
                    {
                      OFFSET 1.667 0.000 0.000
                    }
                  }
                }
              }
            }
          }
        }
      }
      JOINT RightShoulder
      {
        OFFSET -1.496 -0.254 0.377
        CHANNELS 6 Xposition Yposition Zposition Zrotation Xrotation Yrotation
        JOINT RightArm
        {
          OFFSET -15.025 0.000 0.000
          CHANNELS 6 Xposition Yposition Zposition Zrotation Xrotation Yrotation
          JOINT RightForeArm
          {
            OFFSET -23.933 0.000 0.000
            CHANNELS 6 Xposition Yposition Zposition Zrotation Xrotation Yrotation
            JOINT RightHand
            {
              OFFSET -23.188 0.000 0.000
              CHANNELS 6 Xposition Yposition Zposition Zrotation Xrotation Yrotation
              JOINT RightHandThumb1
              {
                OFFSET -4.877 -1.044 3.608
                CHANNELS 6 Xposition Yposition Zposition Zrotation Xrotation Yrotation
                JOINT RightHandThumb2
                {
                  OFFSET -2.665 0.000 -0.000
                  CHANNELS 6 Xposition Yposition Zposition Zrotation Xrotation Yrotation
                  JOINT RightHandThumb3
                  {
                    OFFSET -2.543 0.000 0.000
                    CHANNELS 6 Xposition Yposition Zposition Zrotation Xrotation Yrotation
                    End Site
                    {
                      OFFSET -2.667 0.000 0.000
                    }
                  }
                }
              }
              JOINT RightHandIndex1
              {
                OFFSET -9.232 -0.301 2.144
                CHANNELS 6 Xposition Yposition Zposition Zrotation Xrotation Yrotation
                JOINT RightHandIndex2
                {
                  OFFSET -4.225 0.000 -0.000
                  CHANNELS 6 Xposition Yposition Zposition Zrotation Xrotation Yrotation
                  JOINT RightHandIndex3
                  {
                    OFFSET -2.654 0.000 0.000
                    CHANNELS 6 Xposition Yposition Zposition Zrotation Xrotation Yrotation
                    End Site
                    {
                      OFFSET -1.958 0.000 0.000
                    }
                  }
                }
              }
              JOINT RightHandMiddle1
              {
                OFFSET -8.920 0.000 0.000
                CHANNELS 6 Xposition Yposition Zposition Zrotation Xrotation Yrotation
                JOINT RightHandMiddle2
                {
                  OFFSET -4.863 0.000 0.000
                  CHANNELS 6 Xposition Yposition Zposition Zrotation Xrotation Yrotation
                  JOINT RightHandMiddle3
                  {
                    OFFSET -2.765 0.000 0.000
                    CHANNELS 6 Xposition Yposition Zposition Zrotation Xrotation Yrotation
                    End Site
                    {
                      OFFSET -2.006 0.000 0.000
                    }
                  }
                }
              }
              JOINT RightHandRing1
              {
                OFFSET -8.689 -0.126 -2.087
                CHANNELS 6 Xposition Yposition Zposition Zrotation Xrotation Yrotation
                JOINT RightHandRing2
                {
                  OFFSET -4.538 0.000 -0.000
                  CHANNELS 6 Xposition Yposition Zposition Zrotation Xrotation Yrotation
                  JOINT RightHandRing3
                  {
                    OFFSET -2.305 0.000 0.000
                    CHANNELS 6 Xposition Yposition Zposition Zrotation Xrotation Yrotation
                    End Site
                    {
                      OFFSET -1.923 -0.000 0.000
                    }
                  }
                }
              }
              JOINT RightHandPinky1
              {
                OFFSET -8.391 -0.817 -3.758
                CHANNELS 6 Xposition Yposition Zposition Zrotation Xrotation Yrotation
                JOINT RightHandPinky2
                {
                  OFFSET -3.044 0.000 0.000
                  CHANNELS 6 Xposition Yposition Zposition Zrotation Xrotation Yrotation
                  JOINT RightHandPinky3
                  {
                    OFFSET -1.975 -0.000 0.000
                    CHANNELS 6 Xposition Yposition Zposition Zrotation Xrotation Yrotation
                    End Site
                    {
                      OFFSET -1.667 0.000 -0.000
                    }
                  }
                }
              }
            }
          }
        }
      }
      JOINT Neck
      {
        OFFSET 0.000 0.758 0.000
        CHANNELS 6 Xposition Yposition Zposition Zrotation Xrotation Yrotation
        JOINT Head
        {
          OFFSET 0.000 6.874 0.000
          CHANNELS 6 Xposition Yposition Zposition Zrotation Xrotation Yrotation
          End Site
          {
            OFFSET 0.000 15.410 0.000
          }
        }
      }
    }
  }
}
MOTION
Frames:	4
Frame Time:	0.034483
-5.87048 96.59283 -191.41423 -3.27837 1.01559 -10.57929 9.10826 0.63149 3.62322 5.54800 12.14355 -0.37547 0.00541 -40.23266 -0.00129 1.43254 -3.71387 31.25734 -0.00436 -37.96124 0.00501 -5.22923 39.50282 8.19467 -7.54962 -0.03027 3.62667 -1.06946 6.62936 -16.97594 0.00116 -43.75646 0.00419 -1.12027 -5.88635 12.54198 -0.00895 -37.02614 0.01091 -2.19049 26.29389 4.94557 -0.00563 33.07939 0.00257 -0.43808 1.81105 -2.43637 -0.00083 23.99319 0.00146 -0.56148 2.19880 -2.37436 1.69222 -0.50137 0.10304 -16.59691 0.93208 -3.12375 15.98550 -0.00130 0.00693 -59.84204 2.91828 1.78340 24.46100 -0.00075 0.00179 -7.87489 0.56882 -22.43860 26.96204 0.00196 -0.01133 -11.81303 -0.41694 4.71279 4.87701 -1.04400 3.60799 -41.57595 -8.45725 -7.72882 2.66500 0.00000 0.00001 -0.00000 0.00000 5.00000 2.54301 0.00000 -0.00002 -0.00000 0.00000 60.00000 9.23200 -0.30100 2.14399 -80.00000 -0.00000 0.00000 4.22500 0.00001 -0.00001 -90.00000 -0.00000 0.00000 2.65400 0.00000 0.00000 -70.00000 0.00000 0.00000 8.92001 0.00000 -0.00001 -80.00000 -0.00000 0.00000 4.86300 0.00000 0.00001 -90.00000 -0.00000 0.00000 2.76500 -0.00001 0.00001 -70.00000 -0.00000 0.00000 8.68901 -0.12600 -2.08702 -80.00000 -0.00000 0.00000 4.53801 -0.00001 0.00000 -90.00000 -0.00000 0.00000 2.30501 0.00001 0.00000 -70.00000 -0.00000 0.00000 8.39100 -0.81701 -3.75801 -80.00000 -0.00000 0.00000 3.04400 0.00001 0.00002 -90.00000 -0.00000 0.00000 1.97501 0.00001 0.00000 -70.00000 0.00000 0.00000 -1.88679 -0.75122 0.10042 21.79852 1.09234 2.72922 -18.29391 -0.00275 -0.00263 65.12215 5.78600 2.10074 -26.39765 0.00325 0.00079 5.99571 1.01304 28.34065 -23.01382 0.00305 0.01085 20.38377 4.36954 -2.30577 -4.87698 -1.04400 3.60800 37.43813 21.26626 8.20656 -2.66498 0.00000 -0.00001 -0.00000 0.00000 -5.00000 -2.54300 0.00001 0.00001 -0.00000 -0.00000 -60.00000 -9.23200 -0.30100 2.14400 80.00000 -0.00001 0.00001 -4.22500 0.00000 -0.00001 90.00000 -0.00000 0.00001 -2.65399 0.00000 0.00000 70.00001 -0.00001 0.00000 -8.91999 0.00000 0.00000 80.00000 -0.00001 0.00001 -4.86300 0.00001 0.00000 90.00000 -0.00000 0.00001 -2.76501 0.00000 0.00000 70.00000 -0.00001 0.00000 -8.68899 -0.12600 -2.08699 80.00000 -0.00001 0.00001 -4.53800 0.00001 -0.00001 90.00000 -0.00000 0.00001 -2.30500 0.00000 0.00000 70.00000 -0.00001 0.00000 -8.39099 -0.81700 -3.75799 80.00000 -0.00001 0.00001 -3.04400 0.00001 0.00000 90.00000 -0.00000 0.00001 -1.97500 -0.00000 0.00000 70.00001 -0.00001 0.00000 0.00227 0.76829 0.00346 -0.00648 0.00302 -0.00086 -0.00466 6.98923 0.00430 21.27688 5.85361 -27.87616 
-5.84769 96.59283 -191.41423 -3.27852 1.01962 -10.52997 9.10826 0.63149 3.62322 5.53407 12.11721 -0.49567 0.00541 -40.29496 -0.00129 1.48414 -3.72315 31.21876 -0.00436 -37.93627 0.00501 -5.51718 39.67057 8.61147 -7.54962 -0.03027 3.62667 -1.12293 6.61112 -17.07650 0.00116 -43.72182 0.00419 -1.04864 -5.79234 12.59876 -0.00895 -36.95385 0.01091 -2.21268 26.81359 4.90594 -0.00563 33.06591 0.00257 -0.43931 1.81836 -2.38789 -0.00083 23.98077 0.00146 -0.56304 2.20521 -2.32677 1.69222 -0.50137 0.10304 -16.52360 0.96331 -3.24340 15.96832 -0.00130 0.00693 -59.92953 2.92552 1.77306 24.46100 -0.00075 0.00179 -7.82682 0.54484 -22.43851 26.96204 0.00196 -0.01133 -11.68495 -0.49733 4.60010 4.87701 -1.04400 3.60799 -41.57595 -8.45725 -7.72882 2.66500 0.00000 0.00001 -0.00000 0.00000 5.00000 2.54301 0.00000 -0.00002 -0.00000 0.00000 60.00000 9.23200 -0.30100 2.14399 -80.00000 -0.00000 0.00000 4.22500 0.00001 -0.00001 -90.00000 -0.00000 0.00000 2.65400 0.00000 0.00000 -70.00000 0.00000 0.00000 8.92001 0.00000 -0.00001 -80.00000 -0.00000 0.00000 4.86300 0.00000 0.00001 -90.00000 -0.00000 0.00000 2.76500 -0.00001 0.00001 -70.00000 -0.00000 0.00000 8.68901 -0.12600 -2.08702 -80.00000 -0.00000 0.00000 4.53801 -0.00001 0.00000 -90.00000 -0.00000 0.00000 2.30501 0.00001 0.00000 -70.00000 -0.00000 0.00000 8.39100 -0.81701 -3.75801 -80.00000 -0.00000 0.00000 3.04400 0.00001 0.00002 -90.00000 -0.00000 0.00000 1.97501 0.00001 0.00000 -70.00000 0.00000 0.00000 -1.88679 -0.75122 0.10042 21.69551 1.12882 2.83658 -18.26376 -0.00275 -0.00263 65.17447 5.50638 1.90382 -26.42331 0.00325 0.00079 5.99023 1.15315 28.54345 -23.01382 0.00305 0.01085 20.34555 4.29402 -2.14412 -4.87698 -1.04400 3.60800 37.43813 21.26626 8.20656 -2.66498 0.00000 -0.00001 -0.00000 0.00000 -5.00000 -2.54300 0.00001 0.00001 -0.00000 -0.00000 -60.00000 -9.23200 -0.30100 2.14400 80.00000 -0.00001 0.00001 -4.22500 0.00000 -0.00001 90.00000 -0.00000 0.00001 -2.65399 0.00000 0.00000 70.00001 -0.00001 0.00000 -8.91999 0.00000 0.00000 80.00000 -0.00001 0.00001 -4.86300 0.00001 0.00000 90.00000 -0.00000 0.00001 -2.76501 0.00000 0.00000 70.00000 -0.00001 0.00000 -8.68899 -0.12600 -2.08699 80.00000 -0.00001 0.00001 -4.53800 0.00001 -0.00001 90.00000 -0.00000 0.00001 -2.30500 0.00000 0.00000 70.00000 -0.00001 0.00000 -8.39099 -0.81700 -3.75799 80.00000 -0.00001 0.00001 -3.04400 0.00001 0.00000 90.00000 -0.00000 0.00001 -1.97500 -0.00000 0.00000 70.00001 -0.00001 0.00000 0.00227 0.76829 0.00346 -0.00648 0.00302 -0.00086 -0.00466 6.98424 0.00430 20.90030 6.91719 -27.28290 
-5.82139 96.59283 -191.41423 -3.27496 1.02548 -10.46466 9.10826 0.63149 3.62322 5.51922 12.08156 -0.59405 0.00541 -40.32682 -0.00129 1.52533 -3.72078 31.20767 -0.00436 -37.93295 0.00501 -5.79795 39.61371 9.05583 -7.54962 -0.03027 3.62667 -1.17645 6.57773 -17.17587 0.00116 -43.73123 0.00419 -0.94773 -5.66916 12.61498 -0.00895 -36.80735 0.01091 -2.10517 26.86037 4.66144 -0.00563 33.04783 0.00257 -0.44405 1.82698 -2.34481 -0.00083 23.96254 0.00146 -0.56062 2.21407 -2.28388 1.69222 -0.50137 0.10304 -16.40939 0.98282 -3.33277 15.94681 -0.00130 0.00693 -60.06162 2.96445 1.72711 24.45824 -0.00075 0.00179 -7.77839 0.50215 -22.42510 26.96318 0.00196 -0.01133 -11.45558 -0.65474 4.38460 4.87701 -1.04400 3.60799 -41.57595 -8.45725 -7.72882 2.66500 0.00000 0.00001 -0.00000 0.00000 5.00000 2.54301 0.00000 -0.00002 -0.00000 0.00000 60.00000 9.23200 -0.30100 2.14399 -80.00000 -0.00000 0.00000 4.22500 0.00001 -0.00001 -90.00000 -0.00000 0.00000 2.65400 0.00000 0.00000 -70.00000 0.00000 0.00000 8.92001 0.00000 -0.00001 -80.00000 -0.00000 0.00000 4.86300 0.00000 0.00001 -90.00000 -0.00000 0.00000 2.76500 -0.00001 0.00001 -70.00000 -0.00000 0.00000 8.68901 -0.12600 -2.08702 -80.00000 -0.00000 0.00000 4.53801 -0.00001 0.00000 -90.00000 -0.00000 0.00000 2.30501 0.00001 0.00000 -70.00000 -0.00000 0.00000 8.39100 -0.81701 -3.75801 -80.00000 -0.00000 0.00000 3.04400 0.00001 0.00002 -90.00000 -0.00000 0.00000 1.97501 0.00001 0.00000 -70.00000 0.00000 0.00000 -1.88679 -0.74686 0.10309 21.57761 1.15236 2.91416 -18.24731 -0.00275 -0.00263 65.26640 5.32923 1.73428 -26.44321 0.00325 0.00079 5.92028 1.28709 28.73692 -23.01382 0.00305 0.01085 20.23221 4.17304 -1.83634 -4.87698 -1.04400 3.60800 37.43813 21.26626 8.20656 -2.66498 0.00000 -0.00001 -0.00000 0.00000 -5.00000 -2.54300 0.00001 0.00001 -0.00000 -0.00000 -60.00000 -9.23200 -0.30100 2.14400 80.00000 -0.00001 0.00001 -4.22500 0.00000 -0.00001 90.00000 -0.00000 0.00001 -2.65399 0.00000 0.00000 70.00001 -0.00001 0.00000 -8.91999 0.00000 0.00000 80.00000 -0.00001 0.00001 -4.86300 0.00001 0.00000 90.00000 -0.00000 0.00001 -2.76501 0.00000 0.00000 70.00000 -0.00001 0.00000 -8.68899 -0.12600 -2.08699 80.00000 -0.00001 0.00001 -4.53800 0.00001 -0.00001 90.00000 -0.00000 0.00001 -2.30500 0.00000 0.00000 70.00000 -0.00001 0.00000 -8.39099 -0.81700 -3.75799 80.00000 -0.00001 0.00001 -3.04400 0.00001 0.00000 90.00000 -0.00000 0.00001 -1.97500 -0.00000 0.00000 70.00001 -0.00001 0.00000 0.00227 0.76829 0.00346 -0.00648 0.00302 -0.00086 -0.00466 6.97688 0.00430 20.39248 8.10672 -26.83714 
-5.79407 96.59283 -191.41423 -3.26958 1.03192 -10.38574 9.10826 0.63149 3.62322 5.51301 12.03859 -0.65002 0.00541 -40.34447 -0.00129 1.55712 -3.70810 31.19952 -0.00436 -37.92653 0.00501 -6.06768 39.62226 9.47067 -7.55416 -0.03027 3.62667 -1.22279 6.53486 -17.26032 0.00116 -43.71870 0.00419 -0.88276 -5.51390 12.59023 -0.00895 -36.67791 0.01091 -2.04231 26.88558 4.51912 -0.00563 33.02531 0.00257 -0.44909 1.83780 -2.29323 -0.00083 23.93727 0.00146 -0.55519 2.22511 -2.23212 1.69222 -0.49657 0.10541 -16.26125 0.99748 -3.41360 15.92964 -0.00130 0.00693 -60.25226 3.03012 1.67730 24.43153 -0.00075 0.00179 -7.70102 0.43618 -22.42147 26.99293 0.00196 -0.01133 -11.24035 -0.78520 4.41326 4.87701 -1.04400 3.60799 -41.57595 -8.45725 -7.72882 2.66500 0.00000 0.00001 -0.00000 0.00000 5.00000 2.54301 0.00000 -0.00002 -0.00000 0.00000 60.00000 9.23200 -0.30100 2.14399 -80.00000 -0.00000 0.00000 4.22500 0.00001 -0.00001 -90.00000 -0.00000 0.00000 2.65400 0.00000 0.00000 -70.00000 0.00000 0.00000 8.92001 0.00000 -0.00001 -80.00000 -0.00000 0.00000 4.86300 0.00000 0.00001 -90.00000 -0.00000 0.00000 2.76500 -0.00001 0.00001 -70.00000 -0.00000 0.00000 8.68901 -0.12600 -2.08702 -80.00000 -0.00000 0.00000 4.53801 -0.00001 0.00000 -90.00000 -0.00000 0.00000 2.30501 0.00001 0.00000 -70.00000 -0.00000 0.00000 8.39100 -0.81701 -3.75801 -80.00000 -0.00000 0.00000 3.04400 0.00001 0.00002 -90.00000 -0.00000 0.00000 1.97501 0.00001 0.00000 -70.00000 0.00000 0.00000 -1.88679 -0.74204 0.10548 21.42913 1.17034 2.98346 -18.24232 -0.00275 -0.00263 65.41867 5.18913 1.55215 -26.45452 0.00325 0.00079 5.81238 1.38724 28.95300 -23.01382 0.00305 0.01085 20.02098 4.00572 -1.41983 -4.87698 -1.04400 3.60800 37.43813 21.26626 8.20656 -2.66498 0.00000 -0.00001 -0.00000 0.00000 -5.00000 -2.54300 0.00001 0.00001 -0.00000 -0.00000 -60.00000 -9.23200 -0.30100 2.14400 80.00000 -0.00001 0.00001 -4.22500 0.00000 -0.00001 90.00000 -0.00000 0.00001 -2.65399 0.00000 0.00000 70.00001 -0.00001 0.00000 -8.91999 0.00000 0.00000 80.00000 -0.00001 0.00001 -4.86300 0.00001 0.00000 90.00000 -0.00000 0.00001 -2.76501 0.00000 0.00000 70.00000 -0.00001 0.00000 -8.68899 -0.12600 -2.08699 80.00000 -0.00001 0.00001 -4.53800 0.00001 -0.00001 90.00000 -0.00000 0.00001 -2.30500 0.00000 0.00000 70.00000 -0.00001 0.00000 -8.39099 -0.81700 -3.75799 80.00000 -0.00001 0.00001 -3.04400 0.00001 0.00000 90.00000 -0.00000 0.00001 -1.97500 -0.00000 0.00000 70.00001 -0.00001 0.00000 0.00227 0.76829 0.00346 -0.00648 0.00302 -0.00086 -0.00466 6.96621 0.00430 19.80190 9.32785 -26.18757 
